<mxfile host="app.diagrams.net" modified="2024-07-10T13:49:01.838Z" agent="Mozilla/5.0 (Windows NT 10.0; Win64; x64) AppleWebKit/537.36 (KHTML, like Gecko) Chrome/126.0.0.0 Safari/537.36" etag="XD2KvKE4dBOZRNkiLXPc" version="24.6.4" type="github" pages="2">
  <diagram name="Page-1" id="9zmKN2QVwmvFiMmsrUrk">
    <mxGraphModel dx="1434" dy="738" grid="1" gridSize="10" guides="1" tooltips="1" connect="1" arrows="1" fold="1" page="1" pageScale="1" pageWidth="827" pageHeight="1169" math="0" shadow="0">
      <root>
        <mxCell id="0" />
        <mxCell id="1" parent="0" />
        <mxCell id="efWkCLroNUpNJrTYXjmR-4" style="edgeStyle=orthogonalEdgeStyle;rounded=0;orthogonalLoop=1;jettySize=auto;html=1;entryX=0.5;entryY=0;entryDx=0;entryDy=0;" edge="1" parent="1" source="efWkCLroNUpNJrTYXjmR-1" target="efWkCLroNUpNJrTYXjmR-3">
          <mxGeometry relative="1" as="geometry" />
        </mxCell>
        <mxCell id="efWkCLroNUpNJrTYXjmR-1" value="Wisteria Start" style="rounded=1;whiteSpace=wrap;html=1;" vertex="1" parent="1">
          <mxGeometry x="220" y="70" width="120" height="60" as="geometry" />
        </mxCell>
        <mxCell id="efWkCLroNUpNJrTYXjmR-6" style="edgeStyle=orthogonalEdgeStyle;rounded=0;orthogonalLoop=1;jettySize=auto;html=1;entryX=0.5;entryY=0;entryDx=0;entryDy=0;" edge="1" parent="1" source="efWkCLroNUpNJrTYXjmR-3">
          <mxGeometry relative="1" as="geometry">
            <mxPoint x="420" y="340" as="targetPoint" />
          </mxGeometry>
        </mxCell>
        <mxCell id="efWkCLroNUpNJrTYXjmR-7" value="Generate" style="edgeLabel;html=1;align=center;verticalAlign=middle;resizable=0;points=[];" vertex="1" connectable="0" parent="efWkCLroNUpNJrTYXjmR-6">
          <mxGeometry x="-0.3304" y="-1" relative="1" as="geometry">
            <mxPoint x="-27" y="-1" as="offset" />
          </mxGeometry>
        </mxCell>
        <mxCell id="efWkCLroNUpNJrTYXjmR-9" style="edgeStyle=orthogonalEdgeStyle;rounded=0;orthogonalLoop=1;jettySize=auto;html=1;entryX=0.5;entryY=0;entryDx=0;entryDy=0;" edge="1" parent="1" source="efWkCLroNUpNJrTYXjmR-3" target="qj7SBrL47oilFJXy8Iqb-3">
          <mxGeometry relative="1" as="geometry">
            <mxPoint x="140" y="340" as="targetPoint" />
          </mxGeometry>
        </mxCell>
        <mxCell id="efWkCLroNUpNJrTYXjmR-10" value="View" style="edgeLabel;html=1;align=center;verticalAlign=middle;resizable=0;points=[];" vertex="1" connectable="0" parent="efWkCLroNUpNJrTYXjmR-9">
          <mxGeometry x="-0.54" y="3" relative="1" as="geometry">
            <mxPoint y="-3" as="offset" />
          </mxGeometry>
        </mxCell>
        <mxCell id="efWkCLroNUpNJrTYXjmR-3" value="Generate/View" style="rhombus;whiteSpace=wrap;html=1;" vertex="1" parent="1">
          <mxGeometry x="240" y="180" width="80" height="80" as="geometry" />
        </mxCell>
        <mxCell id="qj7SBrL47oilFJXy8Iqb-1" value="Wisteria End" style="rounded=1;whiteSpace=wrap;html=1;" vertex="1" parent="1">
          <mxGeometry x="220" y="820" width="120" height="60" as="geometry" />
        </mxCell>
        <mxCell id="qj7SBrL47oilFJXy8Iqb-4" style="edgeStyle=orthogonalEdgeStyle;rounded=0;orthogonalLoop=1;jettySize=auto;html=1;entryX=0;entryY=0.5;entryDx=0;entryDy=0;exitX=0.5;exitY=1;exitDx=0;exitDy=0;" edge="1" parent="1" source="qj7SBrL47oilFJXy8Iqb-3" target="qj7SBrL47oilFJXy8Iqb-1">
          <mxGeometry relative="1" as="geometry" />
        </mxCell>
        <mxCell id="qj7SBrL47oilFJXy8Iqb-3" value="View shift report" style="rounded=0;whiteSpace=wrap;html=1;" vertex="1" parent="1">
          <mxGeometry x="80" y="350" width="120" height="60" as="geometry" />
        </mxCell>
        <mxCell id="qj7SBrL47oilFJXy8Iqb-8" style="edgeStyle=orthogonalEdgeStyle;rounded=0;orthogonalLoop=1;jettySize=auto;html=1;entryX=1;entryY=0.5;entryDx=0;entryDy=0;" edge="1" parent="1" source="qj7SBrL47oilFJXy8Iqb-5" target="qj7SBrL47oilFJXy8Iqb-1">
          <mxGeometry relative="1" as="geometry" />
        </mxCell>
        <mxCell id="qj7SBrL47oilFJXy8Iqb-9" value="No" style="edgeLabel;html=1;align=center;verticalAlign=middle;resizable=0;points=[];" vertex="1" connectable="0" parent="qj7SBrL47oilFJXy8Iqb-8">
          <mxGeometry x="-0.3412" y="-3" relative="1" as="geometry">
            <mxPoint as="offset" />
          </mxGeometry>
        </mxCell>
        <mxCell id="qj7SBrL47oilFJXy8Iqb-11" style="edgeStyle=orthogonalEdgeStyle;rounded=0;orthogonalLoop=1;jettySize=auto;html=1;exitX=1;exitY=0.5;exitDx=0;exitDy=0;entryX=0.5;entryY=0;entryDx=0;entryDy=0;" edge="1" parent="1" source="qj7SBrL47oilFJXy8Iqb-5" target="qj7SBrL47oilFJXy8Iqb-10">
          <mxGeometry relative="1" as="geometry" />
        </mxCell>
        <mxCell id="qj7SBrL47oilFJXy8Iqb-5" value="Generate between x and y?" style="rhombus;whiteSpace=wrap;html=1;" vertex="1" parent="1">
          <mxGeometry x="380" y="340" width="80" height="80" as="geometry" />
        </mxCell>
        <mxCell id="qj7SBrL47oilFJXy8Iqb-13" style="edgeStyle=orthogonalEdgeStyle;rounded=0;orthogonalLoop=1;jettySize=auto;html=1;exitX=0.5;exitY=1;exitDx=0;exitDy=0;entryX=0.5;entryY=0;entryDx=0;entryDy=0;" edge="1" parent="1" source="qj7SBrL47oilFJXy8Iqb-10" target="qj7SBrL47oilFJXy8Iqb-12">
          <mxGeometry relative="1" as="geometry" />
        </mxCell>
        <mxCell id="qj7SBrL47oilFJXy8Iqb-10" value="View shift report" style="rounded=0;whiteSpace=wrap;html=1;" vertex="1" parent="1">
          <mxGeometry x="480" y="440" width="120" height="60" as="geometry" />
        </mxCell>
        <mxCell id="qj7SBrL47oilFJXy8Iqb-15" style="edgeStyle=orthogonalEdgeStyle;rounded=0;orthogonalLoop=1;jettySize=auto;html=1;entryX=1;entryY=0.5;entryDx=0;entryDy=0;" edge="1" parent="1" source="qj7SBrL47oilFJXy8Iqb-12" target="qj7SBrL47oilFJXy8Iqb-1">
          <mxGeometry relative="1" as="geometry" />
        </mxCell>
        <mxCell id="qj7SBrL47oilFJXy8Iqb-16" value="Cancel" style="edgeLabel;html=1;align=center;verticalAlign=middle;resizable=0;points=[];" vertex="1" connectable="0" parent="qj7SBrL47oilFJXy8Iqb-15">
          <mxGeometry x="-0.2338" y="-2" relative="1" as="geometry">
            <mxPoint as="offset" />
          </mxGeometry>
        </mxCell>
        <mxCell id="qj7SBrL47oilFJXy8Iqb-18" style="edgeStyle=orthogonalEdgeStyle;rounded=0;orthogonalLoop=1;jettySize=auto;html=1;exitX=0.5;exitY=1;exitDx=0;exitDy=0;" edge="1" parent="1" source="qj7SBrL47oilFJXy8Iqb-12" target="qj7SBrL47oilFJXy8Iqb-17">
          <mxGeometry relative="1" as="geometry" />
        </mxCell>
        <mxCell id="qj7SBrL47oilFJXy8Iqb-20" value="Confirm" style="edgeLabel;html=1;align=center;verticalAlign=middle;resizable=0;points=[];" vertex="1" connectable="0" parent="qj7SBrL47oilFJXy8Iqb-18">
          <mxGeometry x="-0.08" relative="1" as="geometry">
            <mxPoint as="offset" />
          </mxGeometry>
        </mxCell>
        <mxCell id="qj7SBrL47oilFJXy8Iqb-12" value="Confirm shift report?" style="rhombus;whiteSpace=wrap;html=1;" vertex="1" parent="1">
          <mxGeometry x="490" y="600" width="100" height="90" as="geometry" />
        </mxCell>
        <mxCell id="qj7SBrL47oilFJXy8Iqb-21" style="edgeStyle=orthogonalEdgeStyle;rounded=0;orthogonalLoop=1;jettySize=auto;html=1;entryX=1;entryY=0.5;entryDx=0;entryDy=0;" edge="1" parent="1" source="qj7SBrL47oilFJXy8Iqb-17" target="qj7SBrL47oilFJXy8Iqb-1">
          <mxGeometry relative="1" as="geometry">
            <Array as="points">
              <mxPoint x="410" y="770" />
              <mxPoint x="410" y="850" />
            </Array>
          </mxGeometry>
        </mxCell>
        <mxCell id="qj7SBrL47oilFJXy8Iqb-17" value="Create shift report" style="rounded=0;whiteSpace=wrap;html=1;" vertex="1" parent="1">
          <mxGeometry x="480" y="740" width="120" height="60" as="geometry" />
        </mxCell>
        <mxCell id="qj7SBrL47oilFJXy8Iqb-24" value="Wisteria&amp;nbsp;" style="text;strokeColor=none;fillColor=none;html=1;fontSize=24;fontStyle=1;verticalAlign=middle;align=center;" vertex="1" parent="1">
          <mxGeometry x="230" y="10" width="100" height="40" as="geometry" />
        </mxCell>
      </root>
    </mxGraphModel>
  </diagram>
  <diagram id="YJdTTYI4Vi2fcc4FEd0G" name="Page-2">
    <mxGraphModel grid="1" page="1" gridSize="10" guides="1" tooltips="1" connect="1" arrows="1" fold="1" pageScale="1" pageWidth="827" pageHeight="1169" math="0" shadow="0">
      <root>
        <mxCell id="0" />
        <mxCell id="1" parent="0" />
      </root>
    </mxGraphModel>
  </diagram>
</mxfile>
